<svg width="34" height="37" viewBox="0 0 34 37" fill="none" xmlns="http://www.w3.org/2000/svg">
<path fill-rule="evenodd" clip-rule="evenodd" d="M17 14.6C18.9096 14.6 20.7409 13.8414 22.0912 12.4911C23.4414 11.1409 24.2 9.30951 24.2 7.39995C24.2 5.49039 23.4414 3.65904 22.0912 2.30878C20.7409 0.958521 18.9096 0.199951 17 0.199951C15.0905 0.199951 13.2591 0.958521 11.9088 2.30878C10.5586 3.65904 9.80001 5.49039 9.80001 7.39995C9.80001 9.30951 10.5586 11.1409 11.9088 12.4911C13.2591 13.8414 15.0905 14.6 17 14.6ZM0.200012 36.2C0.200012 33.9937 0.634557 31.8091 1.47884 29.7709C2.32312 27.7326 3.56059 25.8806 5.12062 24.3206C6.68064 22.7605 8.53266 21.5231 10.5709 20.6788C12.6092 19.8345 14.7938 19.4 17 19.4C19.2062 19.4 21.3908 19.8345 23.4291 20.6788C25.4674 21.5231 27.3194 22.7605 28.8794 24.3206C30.4394 25.8806 31.6769 27.7326 32.5212 29.7709C33.3655 31.8091 33.8 33.9937 33.8 36.2H0.200012Z" fill="#94A1B2"/>
</svg>
